<svg xmlns="http://www.w3.org/2000/svg" viewBox="0 0 96 96" role="img" aria-label="배추">
<defs><linearGradient id="g" x1="16" x2="80" y1="18" y2="78"><stop stop-color="#d9f7ba"/><stop offset="1" stop-color="#5caf54"/></linearGradient></defs>
<ellipse cx="48" cy="50" rx="30" ry="34" fill="url(#g)"/><path d="M48 18c-10 12-16 24-18 42m18-42c8 16 11 31 9 58m-9-58c-2 15-2 34 0 60" fill="none" stroke="#f7fff0" stroke-width="4" stroke-linecap="round" opacity=".9"/><path d="M28 36c11 5 25 5 39-1M23 51c13 5 32 5 50-2M29 66c12 3 24 3 36-2" fill="none" stroke="#2f8f42" stroke-width="2" opacity=".35"/><ellipse cx="48" cy="50" rx="34" ry="38" fill="none" stroke="#2f8f42" stroke-width="3" opacity=".18"/></svg>
