<svg xmlns="http://www.w3.org/2000/svg" viewBox="0 0 96 96" role="img" aria-label="배추">
<defs><linearGradient id="cb" x1="20" y1="10" x2="76" y2="86"><stop stop-color="#bfe89a"/><stop offset="1" stop-color="#4e9e3f"/></linearGradient></defs>
<path d="M48 8C30 8 20 26 20 48c0 24 12 40 28 40s28-16 28-40C76 26 66 8 48 8Z" fill="url(#cb)"/>
<path d="M48 14c-6 10-10 24-10 40s4 26 10 30c6-4 10-14 10-30S54 24 48 14Z" fill="#f3fce8"/>
<path d="M36 20c-7 12-9 28-7 46m35-46c7 12 9 28 7 46" fill="none" stroke="#3c8a36" stroke-width="2.5" opacity=".55"/>
<path d="M30 34c12 5 24 5 36 0M27 50c14 5 28 5 42 0M31 66c11 4 23 4 34 0" fill="none" stroke="#2f7d2c" stroke-width="2" opacity=".4"/>
</svg>
