<svg xmlns="http://www.w3.org/2000/svg" viewBox="0 0 96 96" role="img" aria-label="양파">
<defs><linearGradient id="on" x1="24" y1="28" x2="72" y2="84"><stop stop-color="#f6dca6"/><stop offset="1" stop-color="#c98a3f"/></linearGradient></defs>
<path d="M48 30c-7-8-14-10-14-10 2 8 6 10 6 10-10 4-16 16-16 30 0 16 11 26 24 26s24-10 24-26c0-14-6-26-16-30 0 0 4-2 6-10 0 0-7 2-14 10Z" fill="url(#on)"/>
<path d="M40 34c-4 12-5 30-2 50m20-50c4 12 5 30 2 50M48 32v54" fill="none" stroke="#a86f2e" stroke-width="2" opacity=".5"/>
</svg>
