<svg xmlns="http://www.w3.org/2000/svg" viewBox="0 0 96 96" role="img" aria-label="사과">
<defs><radialGradient id="r" cx="37%" cy="30%" r="65%"><stop stop-color="#ff8a7a"/><stop offset="1" stop-color="#c91f2f"/></radialGradient></defs>
<path d="M50 25c4-9 9-13 16-14" fill="none" stroke="#7a4a21" stroke-width="5" stroke-linecap="round"/><path d="M52 22c10-8 20-6 25 2-8 7-17 9-25-2z" fill="#54a85b"/><path d="M48 30c14-10 33 1 35 21 2 24-15 35-30 32-3-.7-7-.7-10 0-15 3-32-8-30-32 2-20 21-31 35-21z" fill="url(#r)"/><path d="M30 44c5-8 14-10 23-8" fill="none" stroke="#ffbeb7" stroke-width="4" stroke-linecap="round" opacity=".65"/></svg>
