<svg xmlns="http://www.w3.org/2000/svg" viewBox="0 0 96 96" role="img" aria-label="마늘">
<path d="M48 15c7 10 17 15 25 25 11 14 5 37-13 43-5 2-9 1-12-1-3 2-8 3-13 1-18-6-24-29-13-43 8-10 18-15 26-25z" fill="#f6efe0" stroke="#d8c7a2" stroke-width="3"/><path d="M48 21c-7 18-8 41-1 60M48 21c7 20 8 42 1 60M32 43c8 6 11 22 8 39M64 43c-8 6-11 22-8 39" fill="none" stroke="#fffaf0" stroke-width="3" opacity=".9"/><path d="M43 18c4-6 10-8 17-8" fill="none" stroke="#8b6d37" stroke-width="4" stroke-linecap="round"/></svg>
