<svg xmlns="http://www.w3.org/2000/svg" viewBox="0 0 96 96" role="img" aria-label="무">
<defs><linearGradient id="rd" x1="30" y1="20" x2="66" y2="84"><stop stop-color="#ffffff"/><stop offset="1" stop-color="#e6efe2"/></linearGradient></defs>
<path d="M40 24c-3 6-4 14-3 28 1 16 4 28 11 32 7-4 10-16 11-32 1-14 0-22-3-28-4 4-12 4-16 0Z" fill="url(#rd)" stroke="#cdd8c9" stroke-width="2"/>
<path d="M48 24c-8-4-14-12-12-18 6 0 10 4 12 9 2-5 6-9 12-9 2 6-4 14-12 18Z" fill="#5aa84b"/>
<path d="M40 28c8 3 8 3 16 0" fill="none" stroke="#7cc46a" stroke-width="2" opacity=".7"/>
<circle cx="44" cy="50" r="1.5" fill="#cdd8c9"/><circle cx="52" cy="62" r="1.5" fill="#cdd8c9"/>
</svg>
