<svg xmlns="http://www.w3.org/2000/svg" viewBox="0 0 1200 360" preserveAspectRatio="xMidYMid slice" role="img" aria-label="농촌 들판">
<defs>
<linearGradient id="sky" x1="0" y1="0" x2="0" y2="1"><stop stop-color="#bfe3f5"/><stop offset="1" stop-color="#e8f5ec"/></linearGradient>
<linearGradient id="hill1" x1="0" y1="0" x2="0" y2="1"><stop stop-color="#8fc97a"/><stop offset="1" stop-color="#5fa84f"/></linearGradient>
<linearGradient id="hill2" x1="0" y1="0" x2="0" y2="1"><stop stop-color="#a9d98f"/><stop offset="1" stop-color="#79bf5e"/></linearGradient>
<linearGradient id="field" x1="0" y1="0" x2="0" y2="1"><stop stop-color="#bfe09a"/><stop offset="1" stop-color="#8cc471"/></linearGradient>
</defs>
<rect width="1200" height="360" fill="url(#sky)"/>
<circle cx="120" cy="70" r="160" fill="#ffffff" opacity=".25"/>
<ellipse cx="300" cy="60" rx="90" ry="22" fill="#fff" opacity=".5"/>
<ellipse cx="520" cy="48" rx="70" ry="18" fill="#fff" opacity=".45"/>
<path d="M0 150 Q300 90 650 140 T1200 120 V250 H0 Z" fill="url(#hill1)"/>
<path d="M600 130 Q850 70 1050 120 T1200 110 V250 H600 Z" fill="url(#hill2)"/>
<g stroke="#5aa048" stroke-width="2" opacity=".4">
<path d="M620 130 Q850 80 1180 118" fill="none"/>
<path d="M610 150 Q850 105 1190 140" fill="none"/>
<path d="M600 172 Q860 130 1195 162" fill="none"/>
</g>
<path d="M0 230 Q300 200 700 230 T1200 220 V360 H0 Z" fill="url(#field)"/>
<g stroke="#6fb04f" stroke-width="3" opacity=".5">
<path d="M0 258 Q400 232 1200 252" fill="none"/>
<path d="M0 286 Q400 262 1200 280" fill="none"/>
<path d="M0 316 Q400 294 1200 312" fill="none"/>
</g>
<!-- greenhouse -->
<g transform="translate(840,196)">
<path d="M0 60 Q70 6 140 60 Z" fill="#eef6ef" opacity=".92"/>
<path d="M0 60 Q70 6 140 60" fill="none" stroke="#cfe4d0" stroke-width="2"/>
<g stroke="#cfe4d0" stroke-width="1.5"><path d="M22 50 Q70 18 70 18"/><path d="M118 50 Q70 18 70 18"/><path d="M48 40 Q70 24 70 24"/><path d="M92 40 Q70 24 70 24"/></g>
<rect x="0" y="58" width="140" height="6" fill="#bcd6bd"/>
</g>
<g fill="#4f9a45"><ellipse cx="120" cy="300" rx="46" ry="20"/><ellipse cx="240" cy="320" rx="40" ry="16"/></g>
</svg>
